<?xml version="1.0" encoding="UTF-8" standalone="no"?>
<!-- Created with Inkscape (http://www.inkscape.org/) -->

<svg
   width="512"
   height="512"
   viewBox="0 0 135.46667 135.46667"
   version="1.1"
   id="svg1"
   xml:space="preserve"
   inkscape:version="1.3.2 (091e20e, 2023-11-25, custom)"
   sodipodi:docname="logo.svg"
   xmlns:inkscape="http://www.inkscape.org/namespaces/inkscape"
   xmlns:sodipodi="http://sodipodi.sourceforge.net/DTD/sodipodi-0.dtd"
   xmlns="http://www.w3.org/2000/svg"
   xmlns:svg="http://www.w3.org/2000/svg"><sodipodi:namedview
     id="namedview1"
     pagecolor="#ffffff"
     bordercolor="#666666"
     borderopacity="1.0"
     inkscape:showpageshadow="2"
     inkscape:pageopacity="0.0"
     inkscape:pagecheckerboard="0"
     inkscape:deskcolor="#d1d1d1"
     inkscape:document-units="px"
     inkscape:zoom="0.81023078"
     inkscape:cx="979.96771"
     inkscape:cy="505.41156"
     inkscape:window-width="3840"
     inkscape:window-height="2054"
     inkscape:window-x="3829"
     inkscape:window-y="-11"
     inkscape:window-maximized="1"
     inkscape:current-layer="layer1" /><defs
     id="defs1"><clipPath
       clipPathUnits="userSpaceOnUse"
       id="clipPath14"><rect
         style="fill:#ff00ff;fill-opacity:1;stroke:#121a2d;stroke-width:3.96877;stroke-dasharray:none;stroke-opacity:1;paint-order:markers stroke fill"
         id="rect15"
         width="22.087721"
         height="24.608906"
         x="83.559654"
         y="4.2614799" /></clipPath><clipPath
       clipPathUnits="userSpaceOnUse"
       id="clipPath16"><rect
         style="fill:#ff00ff;fill-opacity:1;stroke:#121a2d;stroke-width:3.96877;stroke-dasharray:none;stroke-opacity:1;paint-order:markers stroke fill"
         id="rect17"
         width="22.996683"
         height="22.338711"
         x="81.46904"
         y="57.747257" /></clipPath><clipPath
       clipPathUnits="userSpaceOnUse"
       id="clipPath18"><rect
         style="fill:#ff00ff;fill-opacity:1;stroke:#121a2d;stroke-width:3.96877;stroke-dasharray:none;stroke-opacity:1;paint-order:markers stroke fill"
         id="rect19"
         width="20.724283"
         height="17.5259"
         x="127.55331"
         y="34.772892" /></clipPath></defs><g
     inkscape:label="Layer 1"
     inkscape:groupmode="layer"
     id="layer1"><g
       id="g20"
       transform="translate(-284.41067,-35.697539)"><rect
         style="fill:#101b2c;fill-opacity:1;stroke:none;stroke-width:3.96875;stroke-dasharray:none;stroke-opacity:1;paint-order:markers stroke fill"
         id="rect20"
         width="135.46666"
         height="135.46666"
         x="284.41068"
         y="35.697544" /><g
         id="g19"
         transform="translate(141.31562,42.833411)"><path
           style="color:#000000;fill:#48b8ef;fill-opacity:1;stroke:#121a2d;stroke-width:3.12305;stroke-dasharray:none;stroke-opacity:1;paint-order:markers stroke fill"
           d="m 110.37305,-3.4394531 c -1.90161,0 -3.71384,0.8377674 -5.42969,2.2363281 -1.71585,1.39856071 -3.40872,3.3762163 -5.265626,5.9492187 -3.713809,5.146005 -8.065809,12.6983353 -13.86914,22.7500003 -5.803332,10.051665 -10.167912,17.59551 -12.767578,23.384765 -1.299834,2.894628 -2.166268,5.351859 -2.519532,7.53711 -0.353263,2.185251 -0.171506,4.173473 0.779297,5.820312 0.950803,1.646839 2.581276,2.797294 4.650391,3.583985 2.069115,0.78669 4.630371,1.264312 7.787109,1.585937 6.313476,0.643251 15.028103,0.636719 26.634769,0.636719 11.60666,0 20.32324,0.0065 26.63672,-0.636719 3.15673,-0.321625 5.71799,-0.799247 7.7871,-1.585937 2.06912,-0.786691 3.69959,-1.937146 4.6504,-3.583985 0.9508,-1.646839 1.13256,-3.635061 0.77929,-5.820312 -0.35326,-2.185251 -1.2197,-4.642482 -2.51953,-7.53711 -2.59967,-5.789255 -6.96425,-13.3331 -12.76758,-23.384765 -5.80333,-10.051665 -10.15533,-17.6039953 -13.86914,-22.7500003 -1.8569,-2.5730024 -3.55172,-4.55065801 -5.26758,-5.9492187 -1.71585,-1.3985607 -3.52808,-2.2363281 -5.42968,-2.2363281 z m 0,3.12304685 c 1.00006,0 2.08986,0.41884763 3.45703,1.53320315 1.36717,1.1143555 2.9388,2.9045919 4.70898,5.3574218 3.54036,4.9056603 7.89198,12.4307573 13.69531,22.4824223 5.80334,10.051664 10.1448,17.584648 12.62305,23.103515 1.23913,2.759434 2.00368,5.014679 2.28516,6.75586 0.28147,1.74118 0.10159,2.893688 -0.39844,3.759765 -0.50003,0.866078 -1.408,1.601691 -3.05664,2.228516 -1.64864,0.626825 -3.98484,1.08988 -6.99414,1.396484 -6.0186,0.613208 -14.71365,0.621094 -26.32031,0.621094 -11.606666,0 -20.299759,-0.0079 -26.318363,-0.621094 -3.009301,-0.306603 -5.345496,-0.769659 -6.99414,-1.396484 -1.648645,-0.626825 -2.556611,-1.362438 -3.056641,-2.228516 -0.50003,-0.866077 -0.681866,-2.018585 -0.40039,-3.759765 0.281476,-1.741181 1.047985,-3.996426 2.287109,-6.75586 2.478248,-5.518867 6.819716,-13.051851 12.623047,-23.103515 5.803331,-10.051665 10.154957,-17.576762 13.695308,-22.4824223 1.77018,-2.4528299 3.34182,-4.2430663 4.70899,-5.3574218 1.36717,-1.11435553 2.45502,-1.53320315 3.45508,-1.53320315 z"
           id="path6"
           transform="matrix(1.2701765,0,0,1.2714103,70.624473,7.6282054)" /><path
           style="color:#000000;fill:#48b8ef;fill-opacity:1;stroke:#121a2d;stroke-width:3.12305;stroke-dasharray:none;stroke-opacity:1;paint-order:markers stroke fill"
           d="m 110.37305,-3.4394531 c -1.90161,0 -3.71384,0.8377674 -5.42969,2.2363281 -1.71585,1.39856071 -3.40872,3.3762163 -5.265626,5.9492187 -3.713809,5.146005 -8.065809,12.6983353 -13.86914,22.7500003 -5.803332,10.051665 -10.167912,17.59551 -12.767578,23.384765 -1.299834,2.894628 -2.166268,5.351859 -2.519532,7.53711 -0.353263,2.185251 -0.171506,4.173473 0.779297,5.820312 0.950803,1.646839 2.581276,2.797294 4.650391,3.583985 2.069115,0.78669 4.630371,1.264312 7.787109,1.585937 6.313476,0.643251 15.028103,0.636719 26.634769,0.636719 11.60666,0 20.32324,0.0065 26.63672,-0.636719 3.15673,-0.321625 5.71799,-0.799247 7.7871,-1.585937 2.06912,-0.786691 3.69959,-1.937146 4.6504,-3.583985 0.9508,-1.646839 1.13256,-3.635061 0.77929,-5.820312 -0.35326,-2.185251 -1.2197,-4.642482 -2.51953,-7.53711 -2.59967,-5.789255 -6.96425,-13.3331 -12.76758,-23.384765 -5.80333,-10.051665 -10.15533,-17.6039953 -13.86914,-22.7500003 -1.8569,-2.5730024 -3.55172,-4.55065801 -5.26758,-5.9492187 -1.71585,-1.3985607 -3.52808,-2.2363281 -5.42968,-2.2363281 z m 0,3.12304685 c 1.00006,0 2.08986,0.41884763 3.45703,1.53320315 1.36717,1.1143555 2.9388,2.9045919 4.70898,5.3574218 3.54036,4.9056603 7.89198,12.4307573 13.69531,22.4824223 5.80334,10.051664 10.1448,17.584648 12.62305,23.103515 1.23913,2.759434 2.00368,5.014679 2.28516,6.75586 0.28147,1.74118 0.10159,2.893688 -0.39844,3.759765 -0.50003,0.866078 -1.408,1.601691 -3.05664,2.228516 -1.64864,0.626825 -3.98484,1.08988 -6.99414,1.396484 -6.0186,0.613208 -14.71365,0.621094 -26.32031,0.621094 -11.606666,0 -20.299759,-0.0079 -26.318363,-0.621094 -3.009301,-0.306603 -5.345496,-0.769659 -6.99414,-1.396484 -1.648645,-0.626825 -2.556611,-1.362438 -3.056641,-2.228516 -0.50003,-0.866077 -0.681866,-2.018585 -0.40039,-3.759765 0.281476,-1.741181 1.047985,-3.996426 2.287109,-6.75586 2.478248,-5.518867 6.819716,-13.051851 12.623047,-23.103515 5.803331,-10.051665 10.154957,-17.576762 13.695308,-22.4824223 1.77018,-2.4528299 3.34182,-4.2430663 4.70899,-5.3574218 1.36717,-1.11435553 2.45502,-1.53320315 3.45508,-1.53320315 z"
           id="path13"
           transform="matrix(1.2701765,0,0,1.2714103,70.624473,7.6282054)" /><path
           style="color:#000000;fill:#48b8ef;fill-opacity:1;stroke:#121a2d;stroke-width:3.12305;stroke-dasharray:none;stroke-opacity:1;paint-order:markers stroke fill"
           d="m 110.37305,-3.4394531 c -1.90161,0 -3.71384,0.8377674 -5.42969,2.2363281 -1.71585,1.39856071 -3.40872,3.3762163 -5.265626,5.9492187 -3.713809,5.146005 -8.065809,12.6983353 -13.86914,22.7500003 -5.803332,10.051665 -10.167912,17.59551 -12.767578,23.384765 -1.299834,2.894628 -2.166268,5.351859 -2.519532,7.53711 -0.353263,2.185251 -0.171506,4.173473 0.779297,5.820312 0.950803,1.646839 2.581276,2.797294 4.650391,3.583985 2.069115,0.78669 4.630371,1.264312 7.787109,1.585937 6.313476,0.643251 15.028103,0.636719 26.634769,0.636719 11.60666,0 20.32324,0.0065 26.63672,-0.636719 3.15673,-0.321625 5.71799,-0.799247 7.7871,-1.585937 2.06912,-0.786691 3.69959,-1.937146 4.6504,-3.583985 0.9508,-1.646839 1.13256,-3.635061 0.77929,-5.820312 -0.35326,-2.185251 -1.2197,-4.642482 -2.51953,-7.53711 -2.59967,-5.789255 -6.96425,-13.3331 -12.76758,-23.384765 -5.80333,-10.051665 -10.15533,-17.6039953 -13.86914,-22.7500003 -1.8569,-2.5730024 -3.55172,-4.55065801 -5.26758,-5.9492187 -1.71585,-1.3985607 -3.52808,-2.2363281 -5.42968,-2.2363281 z m 0,3.12304685 c 1.00006,0 2.08986,0.41884763 3.45703,1.53320315 1.36717,1.1143555 2.9388,2.9045919 4.70898,5.3574218 3.54036,4.9056603 7.89198,12.4307573 13.69531,22.4824223 5.80334,10.051664 10.1448,17.584648 12.62305,23.103515 1.23913,2.759434 2.00368,5.014679 2.28516,6.75586 0.28147,1.74118 0.10159,2.893688 -0.39844,3.759765 -0.50003,0.866078 -1.408,1.601691 -3.05664,2.228516 -1.64864,0.626825 -3.98484,1.08988 -6.99414,1.396484 -6.0186,0.613208 -14.71365,0.621094 -26.32031,0.621094 -11.606666,0 -20.299759,-0.0079 -26.318363,-0.621094 -3.009301,-0.306603 -5.345496,-0.769659 -6.99414,-1.396484 -1.648645,-0.626825 -2.556611,-1.362438 -3.056641,-2.228516 -0.50003,-0.866077 -0.681866,-2.018585 -0.40039,-3.759765 0.281476,-1.741181 1.047985,-3.996426 2.287109,-6.75586 2.478248,-5.518867 6.819716,-13.051851 12.623047,-23.103515 5.803331,-10.051665 10.154957,-17.576762 13.695308,-22.4824223 1.77018,-2.4528299 3.34182,-4.2430663 4.70899,-5.3574218 1.36717,-1.11435553 2.45502,-1.53320315 3.45508,-1.53320315 z"
           id="path5"
           transform="matrix(1.2701765,0,0,1.2714103,70.624473,7.6282054)" /><path
           style="color:#000000;fill:#48b8ef;stroke:#121a2d;stroke-width:3.12305;stroke-dasharray:none;stroke-opacity:1;paint-order:markers stroke fill"
           d="m 110.37305,-3.4394531 c -1.90161,0 -3.71384,0.8377674 -5.42969,2.2363281 -1.71585,1.39856074 -3.40872,3.3762162 -5.265626,5.9492187 -3.713809,5.1460051 -8.065809,12.6983353 -13.86914,22.7500003 -5.803332,10.051665 -10.167912,17.59551 -12.767578,23.384765 -1.299834,2.894628 -2.166268,5.351859 -2.519532,7.53711 -0.353263,2.185251 -0.171506,4.173473 0.779297,5.820312 0.950803,1.646839 2.581276,2.797294 4.650391,3.583985 2.069115,0.78669 4.630371,1.264312 7.787109,1.585937 6.313476,0.643251 15.028103,0.636719 26.634769,0.636719 11.60666,0 20.32324,0.0065 26.63672,-0.636719 3.15673,-0.321625 5.71799,-0.799247 7.7871,-1.585937 2.06912,-0.786691 3.69959,-1.937146 4.6504,-3.583985 0.9508,-1.646839 1.13256,-3.635061 0.77929,-5.820312 -0.35326,-2.185251 -1.2197,-4.642482 -2.51953,-7.53711 -2.59967,-5.789255 -6.96425,-13.3331 -12.76758,-23.384765 -5.80333,-10.051665 -10.15533,-17.6039953 -13.86914,-22.7500003 -1.8569,-2.5730024 -3.55172,-4.55065798 -5.26758,-5.9492187 -1.71585,-1.3985607 -3.52808,-2.2363281 -5.42968,-2.2363281 z m 0,3.12304685 c 1.00006,0 2.08986,0.41884766 3.45703,1.53320315 1.36717,1.1143554 2.9388,2.904592 4.70898,5.3574218 3.54036,4.9056603 7.89198,12.4307573 13.69531,22.4824223 5.80334,10.051664 10.1448,17.584648 12.62305,23.103515 1.23913,2.759434 2.00368,5.014679 2.28516,6.75586 0.28147,1.74118 0.10159,2.893688 -0.39844,3.759765 -0.50003,0.866077 -1.408,1.601691 -3.05664,2.228516 -1.64864,0.626825 -3.98484,1.08988 -6.99414,1.396484 -6.0186,0.613208 -14.71365,0.621094 -26.32031,0.621094 -11.606666,0 -20.299759,-0.0079 -26.318363,-0.621094 -3.009301,-0.306603 -5.345496,-0.769659 -6.99414,-1.396484 -1.648645,-0.626825 -2.556611,-1.362439 -3.056641,-2.228516 -0.50003,-0.866077 -0.681866,-2.018585 -0.40039,-3.759765 0.281475,-1.741181 1.047985,-3.996426 2.287109,-6.75586 2.478248,-5.518867 6.819716,-13.051851 12.623047,-23.103515 5.803331,-10.051665 10.154957,-17.576762 13.695308,-22.4824223 1.77018,-2.4528299 3.34182,-4.2430664 4.70899,-5.3574218 1.36717,-1.1143555 2.45502,-1.53320315 3.45508,-1.53320315 z"
           id="path4"
           transform="matrix(0.63508825,1.1000051,-1.1010736,0.63570515,186.61319,-87.288247)" /><path
           style="color:#000000;fill:#48b8ef;fill-opacity:1;stroke:#121a2d;stroke-width:3.12305;stroke-dasharray:none;stroke-opacity:1;paint-order:markers stroke fill"
           d="m 110.37305,-3.4394531 c -1.90161,0 -3.71384,0.8377674 -5.42969,2.2363281 -1.71585,1.39856071 -3.40872,3.3762163 -5.265626,5.9492187 -3.713809,5.146005 -8.065809,12.6983353 -13.86914,22.7500003 -5.803332,10.051665 -10.167912,17.59551 -12.767578,23.384765 -1.299834,2.894628 -2.166268,5.351859 -2.519532,7.53711 -0.353263,2.185251 -0.171506,4.173473 0.779297,5.820312 0.950803,1.646839 2.581276,2.797294 4.650391,3.583985 2.069115,0.78669 4.630371,1.264312 7.787109,1.585937 6.313476,0.643251 15.028103,0.636719 26.634769,0.636719 11.60666,0 20.32324,0.0065 26.63672,-0.636719 3.15673,-0.321625 5.71799,-0.799247 7.7871,-1.585937 2.06912,-0.786691 3.69959,-1.937146 4.6504,-3.583985 0.9508,-1.646839 1.13256,-3.635061 0.77929,-5.820312 -0.35326,-2.185251 -1.2197,-4.642482 -2.51953,-7.53711 -2.59967,-5.789255 -6.96425,-13.3331 -12.76758,-23.384765 -5.80333,-10.051665 -10.15533,-17.6039953 -13.86914,-22.7500003 -1.8569,-2.5730024 -3.55172,-4.55065801 -5.26758,-5.9492187 -1.71585,-1.3985607 -3.52808,-2.2363281 -5.42968,-2.2363281 z m 0,3.12304685 c 1.00006,0 2.08986,0.41884763 3.45703,1.53320315 1.36717,1.1143555 2.9388,2.9045919 4.70898,5.3574218 3.54036,4.9056603 7.89198,12.4307573 13.69531,22.4824223 5.80334,10.051664 10.1448,17.584648 12.62305,23.103515 1.23913,2.759434 2.00368,5.014679 2.28516,6.75586 0.28147,1.74118 0.10159,2.893688 -0.39844,3.759765 -0.50003,0.866078 -1.408,1.601691 -3.05664,2.228516 -1.64864,0.626825 -3.98484,1.08988 -6.99414,1.396484 -6.0186,0.613208 -14.71365,0.621094 -26.32031,0.621094 -11.606666,0 -20.299759,-0.0079 -26.318363,-0.621094 -3.009301,-0.306603 -5.345496,-0.769659 -6.99414,-1.396484 -1.648645,-0.626825 -2.556611,-1.362438 -3.056641,-2.228516 -0.50003,-0.866077 -0.681866,-2.018585 -0.40039,-3.759765 0.281476,-1.741181 1.047985,-3.996426 2.287109,-6.75586 2.478248,-5.518867 6.819716,-13.051851 12.623047,-23.103515 5.803331,-10.051665 10.154957,-17.576762 13.695308,-22.4824223 1.77018,-2.4528299 3.34182,-4.2430663 4.70899,-5.3574218 1.36717,-1.11435553 2.45502,-1.53320315 3.45508,-1.53320315 z"
           id="path14"
           transform="matrix(1.2701765,0,0,1.2714103,70.624473,7.6282054)"
           clip-path="url(#clipPath14)" /><path
           style="color:#000000;fill:#48b8ef;fill-opacity:1;stroke:#121a2d;stroke-width:3.12305;stroke-dasharray:none;stroke-opacity:1;paint-order:markers stroke fill"
           d="m 110.37305,-3.4394531 c -1.90161,0 -3.71384,0.8377674 -5.42969,2.2363281 -1.71585,1.39856071 -3.40872,3.3762163 -5.265626,5.9492187 -3.713809,5.146005 -8.065809,12.6983353 -13.86914,22.7500003 -5.803332,10.051665 -10.167912,17.59551 -12.767578,23.384765 -1.299834,2.894628 -2.166268,5.351859 -2.519532,7.53711 -0.353263,2.185251 -0.171506,4.173473 0.779297,5.820312 0.950803,1.646839 2.581276,2.797294 4.650391,3.583985 2.069115,0.78669 4.630371,1.264312 7.787109,1.585937 6.313476,0.643251 15.028103,0.636719 26.634769,0.636719 11.60666,0 20.32324,0.0065 26.63672,-0.636719 3.15673,-0.321625 5.71799,-0.799247 7.7871,-1.585937 2.06912,-0.786691 3.69959,-1.937146 4.6504,-3.583985 0.9508,-1.646839 1.13256,-3.635061 0.77929,-5.820312 -0.35326,-2.185251 -1.2197,-4.642482 -2.51953,-7.53711 -2.59967,-5.789255 -6.96425,-13.3331 -12.76758,-23.384765 -5.80333,-10.051665 -10.15533,-17.6039953 -13.86914,-22.7500003 -1.8569,-2.5730024 -3.55172,-4.55065801 -5.26758,-5.9492187 -1.71585,-1.3985607 -3.52808,-2.2363281 -5.42968,-2.2363281 z m 0,3.12304685 c 1.00006,0 2.08986,0.41884763 3.45703,1.53320315 1.36717,1.1143555 2.9388,2.9045919 4.70898,5.3574218 3.54036,4.9056603 7.89198,12.4307573 13.69531,22.4824223 5.80334,10.051664 10.1448,17.584648 12.62305,23.103515 1.23913,2.759434 2.00368,5.014679 2.28516,6.75586 0.28147,1.74118 0.10159,2.893688 -0.39844,3.759765 -0.50003,0.866078 -1.408,1.601691 -3.05664,2.228516 -1.64864,0.626825 -3.98484,1.08988 -6.99414,1.396484 -6.0186,0.613208 -14.71365,0.621094 -26.32031,0.621094 -11.606666,0 -20.299759,-0.0079 -26.318363,-0.621094 -3.009301,-0.306603 -5.345496,-0.769659 -6.99414,-1.396484 -1.648645,-0.626825 -2.556611,-1.362438 -3.056641,-2.228516 -0.50003,-0.866077 -0.681866,-2.018585 -0.40039,-3.759765 0.281476,-1.741181 1.047985,-3.996426 2.287109,-6.75586 2.478248,-5.518867 6.819716,-13.051851 12.623047,-23.103515 5.803331,-10.051665 10.154957,-17.576762 13.695308,-22.4824223 1.77018,-2.4528299 3.34182,-4.2430663 4.70899,-5.3574218 1.36717,-1.11435553 2.45502,-1.53320315 3.45508,-1.53320315 z"
           id="path15"
           transform="matrix(1.2701765,0,0,1.2714103,70.624473,7.6282054)"
           clip-path="url(#clipPath16)" /><path
           style="color:#000000;fill:#48b8ef;fill-opacity:1;stroke:#121a2d;stroke-width:3.12305;stroke-dasharray:none;stroke-opacity:1;paint-order:markers stroke fill"
           d="m 110.37305,-3.4394531 c -1.90161,0 -3.71384,0.8377674 -5.42969,2.2363281 -1.71585,1.39856071 -3.40872,3.3762163 -5.265626,5.9492187 -3.713809,5.146005 -8.065809,12.6983353 -13.86914,22.7500003 -5.803332,10.051665 -10.167912,17.59551 -12.767578,23.384765 -1.299834,2.894628 -2.166268,5.351859 -2.519532,7.53711 -0.353263,2.185251 -0.171506,4.173473 0.779297,5.820312 0.950803,1.646839 2.581276,2.797294 4.650391,3.583985 2.069115,0.78669 4.630371,1.264312 7.787109,1.585937 6.313476,0.643251 15.028103,0.636719 26.634769,0.636719 11.60666,0 20.32324,0.0065 26.63672,-0.636719 3.15673,-0.321625 5.71799,-0.799247 7.7871,-1.585937 2.06912,-0.786691 3.69959,-1.937146 4.6504,-3.583985 0.9508,-1.646839 1.13256,-3.635061 0.77929,-5.820312 -0.35326,-2.185251 -1.2197,-4.642482 -2.51953,-7.53711 -2.59967,-5.789255 -6.96425,-13.3331 -12.76758,-23.384765 -5.80333,-10.051665 -10.15533,-17.6039953 -13.86914,-22.7500003 -1.8569,-2.5730024 -3.55172,-4.55065801 -5.26758,-5.9492187 -1.71585,-1.3985607 -3.52808,-2.2363281 -5.42968,-2.2363281 z m 0,3.12304685 c 1.00006,0 2.08986,0.41884763 3.45703,1.53320315 1.36717,1.1143555 2.9388,2.9045919 4.70898,5.3574218 3.54036,4.9056603 7.89198,12.4307573 13.69531,22.4824223 5.80334,10.051664 10.1448,17.584648 12.62305,23.103515 1.23913,2.759434 2.00368,5.014679 2.28516,6.75586 0.28147,1.74118 0.10159,2.893688 -0.39844,3.759765 -0.50003,0.866078 -1.408,1.601691 -3.05664,2.228516 -1.64864,0.626825 -3.98484,1.08988 -6.99414,1.396484 -6.0186,0.613208 -14.71365,0.621094 -26.32031,0.621094 -11.606666,0 -20.299759,-0.0079 -26.318363,-0.621094 -3.009301,-0.306603 -5.345496,-0.769659 -6.99414,-1.396484 -1.648645,-0.626825 -2.556611,-1.362438 -3.056641,-2.228516 -0.50003,-0.866077 -0.681866,-2.018585 -0.40039,-3.759765 0.281476,-1.741181 1.047985,-3.996426 2.287109,-6.75586 2.478248,-5.518867 6.819716,-13.051851 12.623047,-23.103515 5.803331,-10.051665 10.154957,-17.576762 13.695308,-22.4824223 1.77018,-2.4528299 3.34182,-4.2430663 4.70899,-5.3574218 1.36717,-1.11435553 2.45502,-1.53320315 3.45508,-1.53320315 z"
           id="path17"
           transform="matrix(1.2701765,0,0,1.2714103,70.624473,7.6282054)"
           clip-path="url(#clipPath18)" /></g><path
         id="circle2"
         style="fill:#121a2d;fill-opacity:1;stroke:#48b8ef;stroke-width:3.96875;stroke-dasharray:none;stroke-opacity:1"
         d="m 352.02082,65.143473 a 38.287312,38.287312 0 0 0 -38.28739,38.287397 38.287312,38.287312 0 0 0 38.28739,38.2874 38.287312,38.287312 0 0 0 31.85607,-17.05003 l -10.05208,-6.70137 a 26.298354,26.298354 0 0 1 -21.80399,11.76231 26.298354,26.298354 0 0 1 -26.29831,-26.29831 26.298354,26.298354 0 0 1 26.29831,-26.298315 26.298354,26.298354 0 0 1 21.80399,11.762317 l 10.05208,-6.701376 A 38.287312,38.287312 0 0 0 352.02082,65.143473 Z" /><circle
         style="fill:#48b8ef;fill-opacity:1;stroke:none;stroke-width:3.96875;stroke-dasharray:none;stroke-opacity:1;paint-order:markers stroke fill"
         id="path20"
         cx="352.14398"
         cy="103.43087"
         r="5.953125" /></g></g></svg>
